<svg width="20" height="24" viewBox="0 0 20 24" fill="none" xmlns="http://www.w3.org/2000/svg">
<path d="M8 0C5.23858 0 3 2.23858 3 5V9H6V5C6 3.5 7 3 8 3H12C13 3 14 3.34315 14 5V9H17V5C17 2.23858 14.7614 0 12 0H8Z" fill="#414042"/>
<path fill-rule="evenodd" clip-rule="evenodd" d="M0 11C0 9.89543 0.895431 9 2 9H18C19.1046 9 20 9.89543 20 11V22C20 23.1046 19.1046 24 18 24H2C0.895431 24 0 23.1046 0 22V11ZM11 16.7324C11.5978 16.3866 12 15.7403 12 15C12 13.8954 11.1046 13 10 13C8.89543 13 8 13.8954 8 15C8 15.7403 8.4022 16.3866 9 16.7324V20H11V16.7324Z" fill="#414042"/>
</svg>
