<svg width="165" height="26" viewBox="0 0 165 26" fill="none" xmlns="http://www.w3.org/2000/svg">
<path d="M0 25.8585V9.11789H7.29862C8.05089 9.11789 8.73913 9.27508 9.36336 9.58946C10.0036 9.88812 10.5478 10.2968 10.9959 10.8155C11.4601 11.3185 11.8202 11.8923 12.0763 12.5368C12.3324 13.1655 12.4605 13.81 12.4605 14.4702C12.4605 15.0518 12.3724 15.6177 12.1964 16.1678C12.0363 16.7023 11.7962 17.1896 11.4761 17.6297C11.172 18.0698 10.7959 18.4471 10.3477 18.7614C9.91556 19.0758 9.42738 19.3037 8.88319 19.4452L13.0127 25.8585H10.5638L6.67439 19.846H2.16078V25.8585H0ZM2.16078 17.9598H7.32263C7.77079 17.9598 8.17093 17.8655 8.52306 17.6768C8.89119 17.4882 9.2033 17.2367 9.45939 16.9223C9.71548 16.5922 9.91556 16.215 10.0596 15.7906C10.2037 15.3662 10.2757 14.926 10.2757 14.4702C10.2757 13.9986 10.1877 13.5585 10.0116 13.1498C9.85153 12.7254 9.62745 12.356 9.33935 12.0416C9.06725 11.7115 8.73913 11.46 8.355 11.2871C7.98686 11.0985 7.59472 11.0042 7.17857 11.0042H2.16078V17.9598Z" fill="#F7A246"/>
<path d="M22.6936 25.9764C21.4931 25.9764 20.3968 25.7406 19.4044 25.2691C18.428 24.7818 17.5877 24.1452 16.8835 23.3592C16.1792 22.5576 15.635 21.6459 15.2509 20.6241C14.8668 19.6024 14.6747 18.5571 14.6747 17.4882C14.6747 16.3722 14.8748 15.3033 15.2749 14.2816C15.6911 13.2598 16.2593 12.356 16.9795 11.57C17.6998 10.7841 18.5481 10.1632 19.5244 9.70735C20.5168 9.23578 21.5892 9 22.7416 9C23.942 9 25.0304 9.2515 26.0068 9.75451C26.9831 10.2418 27.8234 10.8863 28.5277 11.6879C29.2319 12.4896 29.7761 13.4013 30.1603 14.423C30.5444 15.429 30.7365 16.4586 30.7365 17.5118C30.7365 18.6278 30.5284 19.6967 30.1122 20.7184C29.7121 21.7402 29.1519 22.644 28.4316 23.43C27.7274 24.2002 26.8791 24.8211 25.8867 25.2927C24.9104 25.7485 23.846 25.9764 22.6936 25.9764ZM16.8595 17.4882C16.8595 18.337 16.9955 19.1623 17.2676 19.9639C17.5557 20.7499 17.9559 21.4494 18.4681 22.0624C18.9802 22.6755 19.5965 23.1627 20.3167 23.5243C21.037 23.8858 21.8373 24.0666 22.7176 24.0666C23.6299 24.0666 24.4462 23.8779 25.1665 23.5007C25.8867 23.1077 26.4949 22.6047 26.9911 21.9917C27.5033 21.3629 27.8874 20.6556 28.1435 19.8696C28.4156 19.0837 28.5517 18.2899 28.5517 17.4882C28.5517 16.6394 28.4076 15.822 28.1195 15.0361C27.8474 14.2344 27.4473 13.5349 26.9191 12.9376C26.4069 12.3245 25.7907 11.8373 25.0704 11.4757C24.3662 11.1142 23.5819 10.9334 22.7176 10.9334C21.8053 10.9334 20.989 11.1221 20.2687 11.4993C19.5484 11.8766 18.9322 12.3717 18.42 12.9847C17.9239 13.5978 17.5397 14.2973 17.2676 15.0832C16.9955 15.8692 16.8595 16.6708 16.8595 17.4882Z" fill="#F7A246"/>
<path d="M32.6343 17.3703C32.6343 16.3643 32.8103 15.3662 33.1625 14.3759C33.5306 13.3699 34.0588 12.4739 34.747 11.6879C35.4513 10.8863 36.3076 10.2418 37.3159 9.75451C38.3243 9.26722 39.4687 9.02358 40.7492 9.02358C42.2697 9.02358 43.5742 9.36153 44.6626 10.0374C45.751 10.7134 46.5593 11.5936 47.0874 12.6782L45.3828 13.7628C45.1267 13.2284 44.8146 12.7804 44.4465 12.4189C44.0944 12.0573 43.7022 11.7665 43.2701 11.5465C42.8539 11.3264 42.4218 11.1692 41.9736 11.0749C41.5255 10.9806 41.0853 10.9334 40.6531 10.9334C39.7088 10.9334 38.8685 11.1299 38.1322 11.5229C37.412 11.9001 36.8038 12.4031 36.3076 13.0319C35.8114 13.6449 35.4353 14.3444 35.1792 15.1304C34.9391 15.9006 34.819 16.6787 34.819 17.4646C34.819 18.3449 34.9631 19.1859 35.2512 19.9875C35.5553 20.7735 35.9715 21.473 36.4996 22.086C37.0278 22.699 37.6521 23.1863 38.3723 23.5479C39.0926 23.9094 39.8769 24.0902 40.7252 24.0902C41.1733 24.0902 41.6295 24.0351 42.0937 23.9251C42.5738 23.8151 43.03 23.6422 43.4621 23.4064C43.8943 23.1549 44.2944 22.8484 44.6626 22.4868C45.0467 22.1096 45.3588 21.6616 45.5989 21.1429L47.3996 22.1096C47.1275 22.7383 46.7433 23.2963 46.2471 23.7836C45.767 24.2552 45.2148 24.656 44.5905 24.9861C43.9823 25.3162 43.3341 25.5677 42.6459 25.7406C41.9576 25.9135 41.2854 26 40.6291 26C39.4607 26 38.3883 25.7485 37.412 25.2455C36.4356 24.7425 35.5873 24.0902 34.8671 23.2885C34.1628 22.4711 33.6106 21.5515 33.2105 20.5298C32.8263 19.4924 32.6343 18.4392 32.6343 17.3703Z" fill="#F7A246"/>
<path d="M50.1039 25.8585V9.14147H52.2647V18.3842L61.0518 9.11789H63.3807L56.5382 16.4979L63.7648 25.8585H61.412L55.2177 17.724L52.2647 20.742V25.8585H50.1039Z" fill="#F7A246"/>
<path d="M86.2982 25.8585V12.914L80.6322 22.8405H79.4077L73.7177 12.914V25.8585H71.5569V9.11789H73.8377L80.0079 19.9875L86.2022 9.11789H88.459V25.8585H86.2982Z" fill="#F7A246"/>
<path d="M97.7269 9.11789H99.5515L106.514 25.8585H104.209L102.192 20.9542H95.0379L93.0452 25.8585H90.7403L97.7269 9.11789ZM101.712 19.3037L98.6392 11.57L95.47 19.3037H101.712Z" fill="#F7A246"/>
<path d="M108.789 25.8585V9.14147H110.95V18.3842L119.737 9.11789H122.066L115.223 16.4979L122.45 25.8585H120.097L113.903 17.724L110.95 20.742V25.8585H108.789Z" fill="#F7A246"/>
<path d="M136.023 23.9723V25.8585H124.451V9.11789H135.807V11.0042H126.612V16.4272H134.607V18.1956H126.612V23.9723H136.023Z" fill="#F7A246"/>
<path d="M138.987 25.8585V9.11789H146.286C147.038 9.11789 147.726 9.27508 148.351 9.58946C148.991 9.88812 149.535 10.2968 149.983 10.8155C150.447 11.3185 150.808 11.8923 151.064 12.5368C151.32 13.1655 151.448 13.81 151.448 14.4702C151.448 15.0518 151.36 15.6177 151.184 16.1678C151.024 16.7023 150.784 17.1896 150.463 17.6297C150.159 18.0698 149.783 18.4471 149.335 18.7614C148.903 19.0758 148.415 19.3037 147.871 19.4452L152 25.8585H149.551L145.662 19.846H141.148V25.8585H138.987ZM141.148 17.9598H146.31C146.758 17.9598 147.158 17.8655 147.51 17.6768C147.879 17.4882 148.191 17.2367 148.447 16.9223C148.703 16.5922 148.903 16.215 149.047 15.7906C149.191 15.3662 149.263 14.926 149.263 14.4702C149.263 13.9986 149.175 13.5585 148.999 13.1498C148.839 12.7254 148.615 12.356 148.327 12.0416C148.055 11.7115 147.726 11.46 147.342 11.2871C146.974 11.0985 146.582 11.0042 146.166 11.0042H141.148V17.9598Z" fill="#F7A246"/>
<path d="M158.482 13C157.548 13 156.684 12.838 155.889 12.5139C155.107 12.1777 154.424 11.7216 153.84 11.1454C153.267 10.5572 152.818 9.86704 152.491 9.07479C152.164 8.28255 152 7.41828 152 6.482C152 5.55771 152.164 4.69945 152.491 3.9072C152.818 3.11496 153.267 2.43075 153.84 1.85457C154.424 1.27839 155.107 0.828255 155.889 0.504155C156.684 0.168052 157.548 0 158.482 0C159.417 0 160.281 0.168052 161.075 0.504155C161.87 0.828255 162.559 1.27839 163.143 1.85457C163.727 2.43075 164.182 3.11496 164.509 3.9072C164.836 4.69945 165 5.55771 165 6.482C165 7.41828 164.836 8.28255 164.509 9.07479C164.182 9.86704 163.727 10.5572 163.143 11.1454C162.559 11.7216 161.87 12.1777 161.075 12.5139C160.281 12.838 159.417 13 158.482 13ZM158.482 12.3338C159.3 12.3338 160.059 12.1958 160.76 11.9197C161.461 11.6316 162.068 11.2295 162.582 10.7133C163.108 10.1971 163.517 9.58495 163.809 8.87673C164.112 8.15651 164.264 7.36427 164.264 6.5C164.264 5.67175 164.118 4.90351 163.826 4.19529C163.534 3.48707 163.131 2.87488 162.617 2.35873C162.103 1.83056 161.49 1.42244 160.778 1.13435C160.077 0.834257 159.312 0.68421 158.482 0.68421C157.653 0.68421 156.882 0.834257 156.17 1.13435C155.469 1.42244 154.862 1.83056 154.348 2.35873C153.845 2.87488 153.448 3.48707 153.156 4.19529C152.876 4.90351 152.736 5.66574 152.736 6.482C152.736 7.31025 152.876 8.08449 153.156 8.80471C153.448 9.51293 153.845 10.1311 154.348 10.6593C154.862 11.1754 155.469 11.5836 156.17 11.8837C156.882 12.1837 157.653 12.3338 158.482 12.3338ZM155.767 2.44875H159.131C159.481 2.44875 159.802 2.52678 160.094 2.68283C160.386 2.82687 160.637 3.02493 160.848 3.27701C161.058 3.51708 161.221 3.79317 161.338 4.10526C161.455 4.41736 161.513 4.72945 161.513 5.04155C161.513 5.60572 161.356 6.11588 161.04 6.57202C160.737 7.01616 160.334 7.30425 159.832 7.43629L161.741 10.5332H160.462L158.675 7.61634H156.906V10.5332H155.767V2.44875ZM159.078 6.59003C159.499 6.59003 159.82 6.44598 160.042 6.1579C160.275 5.86981 160.392 5.49769 160.392 5.04155C160.392 4.58541 160.258 4.2193 159.989 3.94321C159.732 3.65512 159.411 3.51108 159.026 3.51108H156.906V6.59003H159.078Z" fill="#F7A246"/>
</svg>
